<svg width="60" height="60" viewBox="0 0 60 60" fill="none" xmlns="http://www.w3.org/2000/svg">
<path d="M25 45C29.4374 44.9991 33.747 43.5136 37.2425 40.78L48.2325 51.77L51.7675 48.235L40.7775 37.245C43.5125 33.7492 44.9989 29.4386 45 25C45 13.9725 36.0275 5 25 5C13.9725 5 5 13.9725 5 25C5 36.0275 13.9725 45 25 45ZM25 10C33.2725 10 40 16.7275 40 25C40 33.2725 33.2725 40 25 40C16.7275 40 10 33.2725 10 25C10 16.7275 16.7275 10 25 10Z" fill="#7ED957"/>
<path d="M28.53 21.4652C29.4775 22.4152 30 23.6702 30 25.0002H35C35.0022 23.6863 34.744 22.3849 34.2402 21.1714C33.7364 19.9579 32.9971 18.8563 32.065 17.9302C28.28 14.1502 21.7175 14.1502 17.935 17.9302L21.465 21.4702C23.365 19.5752 26.64 19.5802 28.53 21.4652Z" fill="#7ED957"/>
</svg>
